<mxfile host="app.diagrams.net" modified="2021-08-04T07:40:41.636Z" agent="5.0 (Windows NT 10.0; Win64; x64) AppleWebKit/537.36 (KHTML, like Gecko) Chrome/92.0.4515.107 Safari/537.36" etag="JL2_hWkWmPEgcG3Eoyo7" version="14.9.4" type="github">
  <diagram id="5SXes1SylNmNLAyZej1b" name="Page-1">
    <mxGraphModel dx="460" dy="2927" grid="1" gridSize="10" guides="1" tooltips="1" connect="1" arrows="1" fold="1" page="1" pageScale="1" pageWidth="850" pageHeight="1100" math="0" shadow="0">
      <root>
        <mxCell id="0" />
        <mxCell id="1" parent="0" />
        <mxCell id="j3aWC36EJ92PUxpBvVHE-270" value="format-number.ts" style="swimlane;fontStyle=1;childLayout=stackLayout;horizontal=1;startSize=26;horizontalStack=0;resizeParent=1;resizeParentMax=0;resizeLast=0;collapsible=1;marginBottom=0;align=center;fontSize=14;strokeColor=#82b366;fillColor=#6D8764;" vertex="1" parent="1">
          <mxGeometry x="120" y="-1160" width="290" height="146" as="geometry">
            <mxRectangle x="-70" y="90" width="120" height="26" as="alternateBounds" />
          </mxGeometry>
        </mxCell>
        <mxCell id="j3aWC36EJ92PUxpBvVHE-295" value="DIGITS" style="text;strokeColor=#6F0000;spacingLeft=4;spacingRight=4;overflow=hidden;rotatable=0;points=[[0,0.5],[1,0.5]];portConstraint=eastwest;fontSize=12;fillColor=#a20025;fontColor=#ffffff;" vertex="1" parent="j3aWC36EJ92PUxpBvVHE-270">
          <mxGeometry y="26" width="290" height="30" as="geometry" />
        </mxCell>
        <mxCell id="j3aWC36EJ92PUxpBvVHE-296" value="formatIntNumber" style="text;strokeColor=#666666;spacingLeft=4;spacingRight=4;overflow=hidden;rotatable=0;points=[[0,0.5],[1,0.5]];portConstraint=eastwest;fontSize=12;fillColor=#f5f5f5;fontColor=#333333;" vertex="1" parent="j3aWC36EJ92PUxpBvVHE-270">
          <mxGeometry y="56" width="290" height="30" as="geometry" />
        </mxCell>
        <mxCell id="j3aWC36EJ92PUxpBvVHE-297" value="toFixed" style="text;strokeColor=#6F0000;spacingLeft=4;spacingRight=4;overflow=hidden;rotatable=0;points=[[0,0.5],[1,0.5]];portConstraint=eastwest;fontSize=12;fillColor=#a20025;fontColor=#ffffff;" vertex="1" parent="j3aWC36EJ92PUxpBvVHE-270">
          <mxGeometry y="86" width="290" height="30" as="geometry" />
        </mxCell>
        <mxCell id="j3aWC36EJ92PUxpBvVHE-271" value="formatFloatNumber" style="text;strokeColor=#666666;spacingLeft=4;spacingRight=4;overflow=hidden;rotatable=0;points=[[0,0.5],[1,0.5]];portConstraint=eastwest;fontSize=12;fillColor=#f5f5f5;fontColor=#333333;" vertex="1" parent="j3aWC36EJ92PUxpBvVHE-270">
          <mxGeometry y="116" width="290" height="30" as="geometry" />
        </mxCell>
        <mxCell id="j3aWC36EJ92PUxpBvVHE-272" value="full-analysis-filter-utils.ts" style="swimlane;fontStyle=1;childLayout=stackLayout;horizontal=1;startSize=26;horizontalStack=0;resizeParent=1;resizeParentMax=0;resizeLast=0;collapsible=1;marginBottom=0;align=center;fontSize=14;strokeColor=#B20000;fillColor=#e51400;fontColor=#ffffff;" vertex="1" parent="1">
          <mxGeometry x="120" y="-1000" width="290" height="236" as="geometry">
            <mxRectangle x="-70" y="90" width="120" height="26" as="alternateBounds" />
          </mxGeometry>
        </mxCell>
        <mxCell id="j3aWC36EJ92PUxpBvVHE-289" value="isRowItemPrefixInSelectedMasterItem" style="text;strokeColor=#6F0000;spacingLeft=4;spacingRight=4;overflow=hidden;rotatable=0;points=[[0,0.5],[1,0.5]];portConstraint=eastwest;fontSize=12;fillColor=#a20025;fontColor=#ffffff;" vertex="1" parent="j3aWC36EJ92PUxpBvVHE-272">
          <mxGeometry y="26" width="290" height="30" as="geometry" />
        </mxCell>
        <mxCell id="j3aWC36EJ92PUxpBvVHE-290" value="filterByMasterItemsAFunc" style="text;strokeColor=#6F0000;spacingLeft=4;spacingRight=4;overflow=hidden;rotatable=0;points=[[0,0.5],[1,0.5]];portConstraint=eastwest;fontSize=12;fillColor=#a20025;fontColor=#ffffff;" vertex="1" parent="j3aWC36EJ92PUxpBvVHE-272">
          <mxGeometry y="56" width="290" height="30" as="geometry" />
        </mxCell>
        <mxCell id="j3aWC36EJ92PUxpBvVHE-294" value="filterByMasterItemsBFunc" style="text;strokeColor=#6F0000;spacingLeft=4;spacingRight=4;overflow=hidden;rotatable=0;points=[[0,0.5],[1,0.5]];portConstraint=eastwest;fontSize=12;fillColor=#a20025;fontColor=#ffffff;" vertex="1" parent="j3aWC36EJ92PUxpBvVHE-272">
          <mxGeometry y="86" width="290" height="30" as="geometry" />
        </mxCell>
        <mxCell id="j3aWC36EJ92PUxpBvVHE-293" value="escapeRegExp" style="text;strokeColor=#6F0000;spacingLeft=4;spacingRight=4;overflow=hidden;rotatable=0;points=[[0,0.5],[1,0.5]];portConstraint=eastwest;fontSize=12;fillColor=#a20025;fontColor=#ffffff;" vertex="1" parent="j3aWC36EJ92PUxpBvVHE-272">
          <mxGeometry y="116" width="290" height="30" as="geometry" />
        </mxCell>
        <mxCell id="j3aWC36EJ92PUxpBvVHE-292" value="filterByMasterItemsCall" style="text;strokeColor=#6F0000;spacingLeft=4;spacingRight=4;overflow=hidden;rotatable=0;points=[[0,0.5],[1,0.5]];portConstraint=eastwest;fontSize=12;fillColor=#a20025;fontColor=#ffffff;" vertex="1" parent="j3aWC36EJ92PUxpBvVHE-272">
          <mxGeometry y="146" width="290" height="30" as="geometry" />
        </mxCell>
        <mxCell id="j3aWC36EJ92PUxpBvVHE-291" value="filterByMasterItems" style="text;strokeColor=#6F0000;spacingLeft=4;spacingRight=4;overflow=hidden;rotatable=0;points=[[0,0.5],[1,0.5]];portConstraint=eastwest;fontSize=12;fillColor=#a20025;fontColor=#ffffff;" vertex="1" parent="j3aWC36EJ92PUxpBvVHE-272">
          <mxGeometry y="176" width="290" height="30" as="geometry" />
        </mxCell>
        <mxCell id="j3aWC36EJ92PUxpBvVHE-273" value="filterFullAnalysisRowData" style="text;strokeColor=#666666;spacingLeft=4;spacingRight=4;overflow=hidden;rotatable=0;points=[[0,0.5],[1,0.5]];portConstraint=eastwest;fontSize=12;fillColor=#f5f5f5;fontColor=#333333;" vertex="1" parent="j3aWC36EJ92PUxpBvVHE-272">
          <mxGeometry y="206" width="290" height="30" as="geometry" />
        </mxCell>
        <mxCell id="j3aWC36EJ92PUxpBvVHE-276" value="router.ts" style="swimlane;fontStyle=1;childLayout=stackLayout;horizontal=1;startSize=26;horizontalStack=0;resizeParent=1;resizeParentMax=0;resizeLast=0;collapsible=1;marginBottom=0;align=center;fontSize=14;strokeColor=#82b366;fillColor=#6D8764;" vertex="1" parent="1">
          <mxGeometry x="120" y="-550" width="290" height="146" as="geometry">
            <mxRectangle x="-70" y="90" width="120" height="26" as="alternateBounds" />
          </mxGeometry>
        </mxCell>
        <mxCell id="j3aWC36EJ92PUxpBvVHE-277" value="camelize" style="text;strokeColor=#6F0000;spacingLeft=4;spacingRight=4;overflow=hidden;rotatable=0;points=[[0,0.5],[1,0.5]];portConstraint=eastwest;fontSize=12;fillColor=#a20025;fontColor=#ffffff;" vertex="1" parent="j3aWC36EJ92PUxpBvVHE-276">
          <mxGeometry y="26" width="290" height="30" as="geometry" />
        </mxCell>
        <mxCell id="j3aWC36EJ92PUxpBvVHE-282" value="parseQuery" style="text;strokeColor=#6F0000;spacingLeft=4;spacingRight=4;overflow=hidden;rotatable=0;points=[[0,0.5],[1,0.5]];portConstraint=eastwest;fontSize=12;fillColor=#a20025;fontColor=#ffffff;" vertex="1" parent="j3aWC36EJ92PUxpBvVHE-276">
          <mxGeometry y="56" width="290" height="30" as="geometry" />
        </mxCell>
        <mxCell id="j3aWC36EJ92PUxpBvVHE-283" value="routes" style="text;strokeColor=#6F0000;spacingLeft=4;spacingRight=4;overflow=hidden;rotatable=0;points=[[0,0.5],[1,0.5]];portConstraint=eastwest;fontSize=12;fillColor=#a20025;fontColor=#ffffff;" vertex="1" parent="j3aWC36EJ92PUxpBvVHE-276">
          <mxGeometry y="86" width="290" height="30" as="geometry" />
        </mxCell>
        <mxCell id="j3aWC36EJ92PUxpBvVHE-284" value="router" style="text;strokeColor=#666666;spacingLeft=4;spacingRight=4;overflow=hidden;rotatable=0;points=[[0,0.5],[1,0.5]];portConstraint=eastwest;fontSize=12;fillColor=#f5f5f5;fontColor=#333333;" vertex="1" parent="j3aWC36EJ92PUxpBvVHE-276">
          <mxGeometry y="116" width="290" height="30" as="geometry" />
        </mxCell>
        <mxCell id="j3aWC36EJ92PUxpBvVHE-278" value="sort.ts" style="swimlane;fontStyle=1;childLayout=stackLayout;horizontal=1;startSize=26;horizontalStack=0;resizeParent=1;resizeParentMax=0;resizeLast=0;collapsible=1;marginBottom=0;align=center;fontSize=14;strokeColor=#B20000;fillColor=#e51400;fontColor=#ffffff;" vertex="1" parent="1">
          <mxGeometry x="120" y="-390" width="290" height="116" as="geometry">
            <mxRectangle x="-70" y="90" width="120" height="26" as="alternateBounds" />
          </mxGeometry>
        </mxCell>
        <mxCell id="j3aWC36EJ92PUxpBvVHE-279" value="compareNaN" style="text;strokeColor=#666666;spacingLeft=4;spacingRight=4;overflow=hidden;rotatable=0;points=[[0,0.5],[1,0.5]];portConstraint=eastwest;fontSize=12;fillColor=#f5f5f5;fontColor=#333333;" vertex="1" parent="j3aWC36EJ92PUxpBvVHE-278">
          <mxGeometry y="26" width="290" height="30" as="geometry" />
        </mxCell>
        <mxCell id="j3aWC36EJ92PUxpBvVHE-280" value="compareDate" style="text;strokeColor=#666666;spacingLeft=4;spacingRight=4;overflow=hidden;rotatable=0;points=[[0,0.5],[1,0.5]];portConstraint=eastwest;fontSize=12;fillColor=#f5f5f5;fontColor=#333333;" vertex="1" parent="j3aWC36EJ92PUxpBvVHE-278">
          <mxGeometry y="56" width="290" height="30" as="geometry" />
        </mxCell>
        <mxCell id="j3aWC36EJ92PUxpBvVHE-281" value="toggleSortDirection" style="text;strokeColor=#666666;spacingLeft=4;spacingRight=4;overflow=hidden;rotatable=0;points=[[0,0.5],[1,0.5]];portConstraint=eastwest;fontSize=12;fillColor=#f5f5f5;fontColor=#333333;" vertex="1" parent="j3aWC36EJ92PUxpBvVHE-278">
          <mxGeometry y="86" width="290" height="30" as="geometry" />
        </mxCell>
        <mxCell id="j3aWC36EJ92PUxpBvVHE-274" value="history.ts" style="swimlane;fontStyle=1;childLayout=stackLayout;horizontal=1;startSize=26;horizontalStack=0;resizeParent=1;resizeParentMax=0;resizeLast=0;collapsible=1;marginBottom=0;align=center;fontSize=14;strokeColor=#82b366;fillColor=#6D8764;" vertex="1" parent="1">
          <mxGeometry x="120" y="-750" width="290" height="176" as="geometry">
            <mxRectangle x="-70" y="90" width="120" height="26" as="alternateBounds" />
          </mxGeometry>
        </mxCell>
        <mxCell id="j3aWC36EJ92PUxpBvVHE-275" value="interface ContinueLocationState" style="text;strokeColor=#6F0000;spacingLeft=4;spacingRight=4;overflow=hidden;rotatable=0;points=[[0,0.5],[1,0.5]];portConstraint=eastwest;fontSize=12;fillColor=#a20025;fontColor=#ffffff;" vertex="1" parent="j3aWC36EJ92PUxpBvVHE-274">
          <mxGeometry y="26" width="290" height="30" as="geometry" />
        </mxCell>
        <mxCell id="j3aWC36EJ92PUxpBvVHE-288" value="type NewLocationState" style="text;strokeColor=#666666;spacingLeft=4;spacingRight=4;overflow=hidden;rotatable=0;points=[[0,0.5],[1,0.5]];portConstraint=eastwest;fontSize=12;fillColor=#f5f5f5;fontColor=#333333;" vertex="1" parent="j3aWC36EJ92PUxpBvVHE-274">
          <mxGeometry y="56" width="290" height="30" as="geometry" />
        </mxCell>
        <mxCell id="j3aWC36EJ92PUxpBvVHE-287" value="history" style="text;strokeColor=#6F0000;spacingLeft=4;spacingRight=4;overflow=hidden;rotatable=0;points=[[0,0.5],[1,0.5]];portConstraint=eastwest;fontSize=12;fillColor=#a20025;fontColor=#ffffff;" vertex="1" parent="j3aWC36EJ92PUxpBvVHE-274">
          <mxGeometry y="86" width="290" height="30" as="geometry" />
        </mxCell>
        <mxCell id="j3aWC36EJ92PUxpBvVHE-286" value="configureHistory" style="text;strokeColor=#666666;spacingLeft=4;spacingRight=4;overflow=hidden;rotatable=0;points=[[0,0.5],[1,0.5]];portConstraint=eastwest;fontSize=12;fillColor=#f5f5f5;fontColor=#333333;" vertex="1" parent="j3aWC36EJ92PUxpBvVHE-274">
          <mxGeometry y="116" width="290" height="30" as="geometry" />
        </mxCell>
        <mxCell id="j3aWC36EJ92PUxpBvVHE-285" value="getHistory" style="text;strokeColor=#666666;spacingLeft=4;spacingRight=4;overflow=hidden;rotatable=0;points=[[0,0.5],[1,0.5]];portConstraint=eastwest;fontSize=12;fillColor=#f5f5f5;fontColor=#333333;" vertex="1" parent="j3aWC36EJ92PUxpBvVHE-274">
          <mxGeometry y="146" width="290" height="30" as="geometry" />
        </mxCell>
      </root>
    </mxGraphModel>
  </diagram>
</mxfile>
